<svg xmlns="http://www.w3.org/2000/svg" viewBox="0 0 64 64" role="img" aria-hidden="true">
  <rect width="64" height="64" rx="14" fill="#4f6035"/>
  <path
    fill="#e8dcc4"
    d="M18 42V22h6.2c4.8 0 7.8 2.6 7.8 6.4 0 2.1-1 3.9-2.7 5l5.1 8.6h-6.8l-4.2-7.4h-1.2V42H18zm6-11.2h1.4c1.8 0 2.8-1 2.8-2.6 0-1.6-1-2.6-2.8-2.6H24v5.2zm18.4 11.5c-5.4 0-9.2-3.8-9.2-9.5 0-5.6 3.8-9.4 9.2-9.4 4.5 0 7.8 2.8 8.4 7.1h-5.6c-.4-1.6-1.4-2.4-2.8-2.4-2 0-3.2 1.8-3.2 4.7 0 3 1.2 4.8 3.2 4.8 1.5 0 2.5-.9 2.9-2.5h5.6c-.7 4.2-3.9 6.8-8.5 6.8z"
  />
</svg>
